<?xml version="1.0" encoding="UTF-8" standalone="no"?>
<!DOCTYPE svg PUBLIC "-//W3C//DTD SVG 1.1//EN" "http://www.w3.org/Graphics/SVG/1.1/DTD/svg11.dtd">
<svg width="100%" height="100%" viewBox="0 0 1024 1024" version="1.1" xmlns="http://www.w3.org/2000/svg" xmlns:xlink="http://www.w3.org/1999/xlink" xml:space="preserve" xmlns:serif="http://www.serif.com/" style="fill-rule:evenodd;clip-rule:evenodd;stroke-linejoin:round;stroke-miterlimit:2;">
    <path d="M512,85.333C396.117,85.333 381.611,85.845 336.085,87.893C290.688,89.984 259.669,97.195 232.533,107.733C204.054,118.436 178.25,135.226 156.928,156.928C135.227,178.251 118.437,204.054 107.733,232.533C97.195,259.669 89.984,290.688 87.893,336.085C85.803,381.611 85.333,396.117 85.333,512C85.333,627.883 85.803,642.389 87.893,687.915C89.984,733.312 97.195,764.331 107.733,791.467C118.438,819.945 135.228,845.748 156.928,867.072C178.252,888.772 204.055,905.562 232.533,916.267C259.669,926.805 290.688,934.016 336.085,936.107C381.611,938.155 396.117,938.667 512,938.667C627.883,938.667 642.389,938.155 687.915,936.107C733.312,934.016 764.331,926.805 791.467,916.267C819.946,905.563 845.749,888.773 867.072,867.072C888.773,845.749 905.563,819.946 916.267,791.467C926.805,764.331 934.016,733.312 936.107,687.915C938.155,642.389 938.667,627.883 938.667,512C938.667,396.117 938.155,381.611 936.107,336.085C934.016,290.688 926.805,259.669 916.267,232.533C905.563,204.054 888.773,178.251 867.072,156.928C845.75,135.226 819.946,118.436 791.467,107.733C764.331,97.195 733.312,89.984 687.915,87.893C642.389,85.845 627.883,85.333 512,85.333M512,162.219C625.92,162.219 639.403,162.645 684.373,164.693C726.016,166.613 748.587,173.525 763.648,179.371C783.531,187.136 797.781,196.395 812.715,211.285C827.648,226.219 836.864,240.469 844.629,260.352C850.432,275.413 857.429,297.984 859.307,339.584C861.355,384.597 861.781,398.037 861.781,512C861.781,625.92 861.355,639.403 859.307,684.373C857.387,726.016 850.432,748.587 844.629,763.648C837.789,782.181 826.883,798.948 812.715,812.715C797.781,827.648 783.531,836.864 763.648,844.629C748.587,850.432 726.016,857.429 684.416,859.307C639.445,861.355 625.963,861.781 512,861.781C398.08,861.781 384.555,861.355 339.627,859.307C297.984,857.387 275.413,850.432 260.352,844.629C241.818,837.792 225.05,826.885 211.285,812.715C197.115,798.95 186.208,782.182 179.371,763.648C173.525,748.587 166.571,726.016 164.693,684.416C162.645,639.403 162.219,625.963 162.219,512C162.219,398.08 162.645,384.597 164.693,339.627C166.613,297.984 173.525,275.413 179.371,260.352C187.136,240.469 196.395,226.219 211.285,211.285C226.219,196.352 240.469,187.136 260.352,179.371C275.413,173.525 297.984,166.571 339.584,164.693C384.597,162.645 398.037,162.219 512,162.219M512,654.208C433.987,654.208 369.792,590.013 369.792,512C369.792,433.987 433.987,369.792 512,369.792C590.013,369.792 654.208,433.987 654.208,512C654.208,590.013 590.013,654.208 512,654.208M512,292.907L512,292.907C391.809,292.907 292.907,391.809 292.907,512C292.907,632.191 391.809,731.093 512,731.093L512,731.093C632.191,731.093 731.093,632.191 731.093,512C731.093,391.809 632.191,292.907 512,292.907M790.955,284.245L790.955,284.245C790.955,312.333 767.842,335.445 739.755,335.445C711.667,335.445 688.555,312.333 688.555,284.245L688.555,284.245C688.555,256.158 711.667,233.045 739.755,233.045C767.842,233.045 790.955,256.158 790.955,284.245" style="fill:white;fill-rule:nonzero;"/>
</svg>
