<?xml version="1.0" encoding="UTF-8" standalone="no"?>
<!DOCTYPE svg PUBLIC "-//W3C//DTD SVG 1.1//EN" "http://www.w3.org/Graphics/SVG/1.1/DTD/svg11.dtd">
<svg width="100%" height="100%" viewBox="0 0 256 256" version="1.1" xmlns="http://www.w3.org/2000/svg" xmlns:xlink="http://www.w3.org/1999/xlink" xml:space="preserve" xmlns:serif="http://www.serif.com/" style="fill-rule:evenodd;clip-rule:evenodd;stroke-linejoin:round;stroke-miterlimit:2;">
    <g transform="matrix(2.81,0,0,2.81,1.40659,1.40659)">
        <path d="M75.546,78.738L14.455,78.738C6.484,78.738 0,72.254 0,64.283L0,25.716C0,17.746 6.485,11.261 14.455,11.261L75.546,11.261C83.516,11.261 90,17.746 90,25.716L90,64.283C90,72.254 83.516,78.738 75.546,78.738ZM14.455,15.488C8.815,15.488 4.227,20.076 4.227,25.716L4.227,64.283C4.227,69.923 8.815,74.512 14.455,74.512L75.546,74.512C81.186,74.512 85.774,69.923 85.774,64.283L85.774,25.716C85.774,20.076 81.186,15.488 75.546,15.488L14.455,15.488Z" style="fill:white;fill-rule:nonzero;"/>
        <path d="M11.044,25.917C21.848,36.445 32.652,46.972 43.456,57.5C45.47,59.462 48.561,56.378 46.544,54.412C35.74,43.885 24.936,33.357 14.132,22.83C12.118,20.867 9.027,23.952 11.044,25.917Z" style="fill:white;fill-rule:nonzero;"/>
        <path d="M46.544,57.5C57.348,46.973 68.152,36.445 78.956,25.918C80.972,23.953 77.883,20.867 75.868,22.83C65.064,33.357 54.26,43.885 43.456,54.412C41.44,56.377 44.529,59.463 46.544,57.5Z" style="fill:white;fill-rule:nonzero;"/>
        <path d="M78.837,64.952C71.648,58.134 64.458,51.317 57.269,44.499C55.23,42.566 52.137,45.648 54.181,47.587C61.37,54.405 68.56,61.222 75.749,68.04C77.788,69.973 80.881,66.89 78.837,64.952Z" style="fill:white;fill-rule:nonzero;"/>
        <path d="M14.446,68.039C21.635,61.221 28.825,54.404 36.014,47.586C38.057,45.648 34.966,42.564 32.926,44.498C25.737,51.316 18.547,58.133 11.358,64.951C9.315,66.889 12.406,69.974 14.446,68.039Z" style="fill:white;fill-rule:nonzero;"/>
    </g>
</svg>
