<?xml version="1.0" encoding="UTF-8" standalone="no"?>
<!DOCTYPE svg PUBLIC "-//W3C//DTD SVG 1.1//EN" "http://www.w3.org/Graphics/SVG/1.1/DTD/svg11.dtd">
<svg width="100%" height="100%" viewBox="0 0 113 32" version="1.1" xmlns="http://www.w3.org/2000/svg" xmlns:xlink="http://www.w3.org/1999/xlink" xml:space="preserve" xmlns:serif="http://www.serif.com/" style="fill-rule:evenodd;clip-rule:evenodd;stroke-linejoin:round;stroke-miterlimit:2;">
    <path d="M19.554,30.508L26.012,0L37.605,0L37.605,32L31.744,32L31.744,5.306L32.835,1.492L30.943,1.492L24.212,32L13.439,32L6.661,1.492L4.817,1.492L5.861,5.306L5.861,32L0,32L0,0L11.593,0L18.052,30.508L19.554,30.508ZM97.768,11.145L96.131,11.145L80.944,0.159L80.944,6.877L93.812,16L80.944,25.123L80.944,31.842L96.131,20.9L97.768,20.9L113,31.842L113,25.123L100.087,16L113,6.876L113,0.159L97.768,11.145ZM43.808,18.913L75.949,18.913L75.949,13.088L43.808,13.088L43.808,18.913Z" style="fill:white;"/>
</svg>
