<?xml version="1.0" encoding="UTF-8" standalone="no"?>
<!DOCTYPE svg PUBLIC "-//W3C//DTD SVG 1.1//EN" "http://www.w3.org/Graphics/SVG/1.1/DTD/svg11.dtd">
<svg width="100%" height="100%" viewBox="0 0 32 32" version="1.1" xmlns="http://www.w3.org/2000/svg" xmlns:xlink="http://www.w3.org/1999/xlink" xml:space="preserve" xmlns:serif="http://www.serif.com/" style="fill-rule:evenodd;clip-rule:evenodd;stroke-linejoin:round;stroke-miterlimit:2;">
    <path d="M6,3L6,29L26,29L26,9.594L25.719,9.281L19.719,3.281L19.406,3L6,3ZM8,5L18,5L18,11L24,11L24,27L8,27L8,5ZM20,6.438L22.563,9L20,9L20,6.438ZM11,13L11,15L21,15L21,13L11,13ZM11,17L11,19L21,19L21,17L11,17ZM11,21L11,23L21,23L21,21L11,21Z" style="fill:white;fill-rule:nonzero;"/>
</svg>
