<?xml version="1.0" encoding="UTF-8" standalone="no"?>
<!DOCTYPE svg PUBLIC "-//W3C//DTD SVG 1.1//EN" "http://www.w3.org/Graphics/SVG/1.1/DTD/svg11.dtd">
<svg width="100%" height="100%" viewBox="0 0 800 800" version="1.1" xmlns="http://www.w3.org/2000/svg" xmlns:xlink="http://www.w3.org/1999/xlink" xml:space="preserve" xmlns:serif="http://www.serif.com/" style="fill-rule:evenodd;clip-rule:evenodd;stroke-linejoin:round;stroke-miterlimit:2;">
    <g id="XMLID_526_">
        <path id="XMLID_527_" d="M38.645,557.056C40.296,557.056 41.693,555.699 41.931,553.787L50.904,482.664L41.957,409.923C41.691,408.011 40.296,406.643 38.645,406.643C36.952,406.643 35.509,408.04 35.285,409.923L27.443,482.664L35.285,553.763C35.509,555.672 36.952,557.056 38.645,557.056Z" style="fill:white;fill-rule:nonzero;"/>
        <path id="XMLID_530_" d="M9.059,530.005C10.68,530.005 11.995,528.744 12.232,526.859L19.187,482.661L12.232,437.637C11.992,435.811 10.68,434.491 9.059,434.491C7.365,434.491 6.053,435.811 5.813,437.664L0,482.664L5.813,526.848C6.053,528.717 7.365,530.005 9.059,530.005Z" style="fill:white;fill-rule:nonzero;"/>
        <path id="XMLID_531_" d="M74.032,396.384C73.819,394.072 72.125,392.384 70.024,392.384C67.939,392.384 66.243,394.072 66.048,396.384L58.552,482.664L66.048,565.795C66.243,568.093 67.939,569.76 70.024,569.76C72.125,569.76 73.819,568.093 74.032,565.795L82.512,482.664L74.032,396.384Z" style="fill:white;fill-rule:nonzero;"/>
        <path id="XMLID_532_" d="M101.739,573.109C104.197,573.109 106.187,571.085 106.427,568.44L114.44,482.691L106.427,394.003C106.187,391.339 104.197,389.339 101.739,389.339C99.245,389.339 97.227,391.341 97.056,394.016L89.973,482.691L97.056,568.44C97.227,571.088 99.245,573.109 101.739,573.109Z" style="fill:white;fill-rule:nonzero;"/>
        <path id="XMLID_533_" d="M133.672,574.501C136.536,574.501 138.835,572.208 139.072,569.139L139.045,569.16L146.592,482.691L139.045,400.405C138.832,397.387 136.536,395.059 133.669,395.059C130.763,395.059 128.477,397.387 128.304,400.429L121.632,482.693L128.304,569.141C128.48,572.208 130.765,574.501 133.672,574.501Z" style="fill:white;fill-rule:nonzero;"/>
        <path id="XMLID_534_" d="M179.019,482.712L171.939,348.92C171.741,345.528 169.099,342.824 165.856,342.824C162.637,342.824 160.003,345.525 159.805,348.92L153.539,482.712L159.805,569.16C160.003,572.568 162.64,575.235 165.856,575.235C169.101,575.235 171.741,572.568 171.939,569.16L171.939,569.184L179.019,482.712Z" style="fill:white;fill-rule:nonzero;"/>
        <path id="XMLID_535_" d="M198.363,575.376C201.933,575.376 204.896,572.413 205.064,568.632L205.064,568.688L211.683,482.733L205.064,318.317C204.896,314.536 201.933,311.573 198.363,311.573C194.709,311.573 191.773,314.536 191.576,318.317L185.749,482.733L191.603,568.659C191.773,572.413 194.709,575.376 198.363,575.376Z" style="fill:white;fill-rule:nonzero;"/>
        <path id="XMLID_536_" d="M231.053,297.16C227.032,297.16 223.787,300.461 223.621,304.624L218.2,482.76L223.621,567.784C223.789,571.925 227.032,575.205 231.053,575.205C235.064,575.205 238.333,571.952 238.475,567.771L238.475,567.813L244.627,482.76L238.475,304.624C238.333,300.435 235.061,297.16 231.053,297.16Z" style="fill:white;fill-rule:nonzero;"/>
        <path id="XMLID_782_" d="M264.027,575.376C268.443,575.376 271.96,571.813 272.125,567.227L272.125,567.277L277.813,482.763L272.125,298.643C271.957,294.072 268.443,290.493 264.027,290.493C259.584,290.493 256.013,294.072 255.944,298.643L250.835,482.763L255.944,567.277C256.013,571.813 259.584,575.376 264.027,575.376Z" style="fill:white;fill-rule:nonzero;"/>
        <path id="XMLID_783_" d="M297.272,575.291C302.037,575.291 305.904,571.389 306.048,566.443L306.048,566.52L311.283,482.776L306.048,303.339C305.904,298.395 302.037,294.509 297.272,294.509C292.472,294.509 288.605,298.392 288.464,303.339L283.864,482.776L288.493,566.48C288.605,571.389 292.472,575.291 297.272,575.291Z" style="fill:white;fill-rule:nonzero;"/>
        <path id="XMLID_784_" d="M344.957,482.776L340.219,309.88C340.104,304.547 335.928,300.357 330.749,300.357C325.557,300.357 321.379,304.547 321.269,309.915L317.019,482.776L321.269,565.971C321.379,571.261 325.555,575.453 330.749,575.453C335.925,575.453 340.104,571.261 340.219,565.893L340.219,565.971L344.957,482.776Z" style="fill:white;fill-rule:nonzero;"/>
        <path id="XMLID_785_" d="M364.485,575.608C369.989,575.608 374.547,571.029 374.632,565.4L374.632,565.445L378.933,482.821L374.632,277.08C374.549,271.429 369.992,266.859 364.485,266.859C358.984,266.859 354.44,271.451 354.328,277.109L350.504,482.739L354.328,565.448C354.44,571.029 358.984,575.608 364.485,575.608Z" style="fill:white;fill-rule:nonzero;"/>
        <path id="XMLID_786_" d="M398.109,247.504C392.165,247.504 387.344,252.435 387.245,258.445L382.8,482.848L387.272,564.251C387.344,570.184 392.168,575.099 398.109,575.099C403.963,575.099 408.875,570.181 408.901,564.152L408.901,564.251L413.755,482.848L408.901,258.445C408.875,252.413 403.963,247.504 398.109,247.504Z" style="fill:white;fill-rule:nonzero;"/>
        <path id="XMLID_787_" d="M428.853,575.685C429.093,575.707 699.848,575.835 701.587,575.835C755.947,575.835 799.997,531.243 799.997,476.216C799.997,421.219 755.944,376.619 701.587,376.619C688.096,376.619 675.243,379.376 663.52,384.371C655.728,294.581 581.347,224.165 490.608,224.165C468.427,224.165 446.797,228.597 427.693,236.083C420.259,238.989 418.269,241.987 418.211,247.795L418.211,563.899C418.296,570.005 422.952,575.08 428.853,575.685Z" style="fill:white;fill-rule:nonzero;"/>
    </g>
</svg>
